<svg width="48" height="48" viewBox="0 0 48 48" fill="none" xmlns="http://www.w3.org/2000/svg">
<path d="M24 8C28.1366 8 32.0585 9.43515 35.4732 12.0921C38.8878 14.7297 41.7951 18.5891 43.8829 23.4182C44.039 23.7867 44.039 24.2133 43.8829 24.5624C39.7073 34.2206 32.2732 40 24 40H23.9805C15.7268 40 8.29268 34.2206 4.11707 24.5624C3.96098 24.2133 3.96098 23.7867 4.11707 23.4182C8.29268 13.76 15.7268 8 23.9805 8H24ZM24 16.2424C19.6878 16.2424 16.1951 19.7139 16.1951 24C16.1951 28.2667 19.6878 31.7382 24 31.7382C28.2927 31.7382 31.7854 28.2667 31.7854 24C31.7854 19.7139 28.2927 16.2424 24 16.2424ZM24.0023 19.1472C26.6755 19.1472 28.8609 21.3194 28.8609 23.9957C28.8609 26.6527 26.6755 28.8248 24.0023 28.8248C21.3097 28.8248 19.1243 26.6527 19.1243 23.9957C19.1243 23.666 19.1633 23.3557 19.2219 23.0454H19.3194C21.4853 23.0454 23.2414 21.3388 23.3194 19.2054C23.534 19.1666 23.7682 19.1472 24.0023 19.1472Z" fill="white"/>
</svg>
